<svg xmlns="http://www.w3.org/2000/svg" width="46" height="36" viewBox="0 0 46 36" fill="none">
<g clip-path="url(#clip0_2290_5025)">
</g>
<path d="M31.999 34.1662L20.6335 27.4246C20.242 27.1929 20.242 26.6131 20.6335 26.3814L30.449 20.5619C30.9191 20.2824 31.4998 20.2824 31.9699 20.5619L43.3354 27.3035C43.727 27.5352 43.727 28.115 43.3354 28.3467L33.52 34.1662C33.0498 34.4456 32.4691 34.4456 31.999 34.1662Z" fill="#8DBBFF"/>
<path d="M3.40818 22.2072L17.9233 13.602C18.3148 13.3703 18.8038 13.6603 18.8038 14.1236V25.7611C18.8038 26.3185 18.5142 26.8341 18.0441 27.1136L3.52898 35.7188C3.13746 35.9505 2.64844 35.6606 2.64844 35.1973V23.5597C2.64844 23.0023 2.93807 22.4867 3.40818 22.2072Z" fill="#534DFF"/>
<path d="M29.7573 6.20586L40.0909 0.081473C40.4824 -0.150172 40.9715 0.139758 40.9715 0.603048V10.4338C40.9715 10.9912 40.6818 11.5068 40.2103 11.7863L29.8766 17.9107C29.4851 18.1423 28.9961 17.8524 28.9961 17.3891V7.55837C28.9961 7.00093 29.2857 6.48533 29.7573 6.20586Z" fill="#534DFF"/>
<path d="M22.7238 21.2567L0.295456 8.07839C-0.0975134 7.84824 -0.0989691 7.26689 0.294 7.03375L9.08777 1.82099C9.55643 1.54302 10.1342 1.54152 10.6043 1.818L33.021 15.0038C33.414 15.2355 33.414 15.8153 33.0225 16.0485L24.2404 21.2552C23.7717 21.5332 23.1939 21.5347 22.7253 21.2582L22.7238 21.2567Z" fill="#534DFF"/>
<path d="M17.9223 13.6022L13.8281 16.0292L18.8014 18.9524V14.1253C18.8014 13.662 18.3123 13.372 17.9208 13.6037L17.9223 13.6022Z" fill="#4111FF"/>
<path d="M33.0204 15.0025L28.9961 12.6353V17.3877C28.9961 17.851 29.4851 18.1409 29.8766 17.9093L33.0364 16.0367C33.4134 15.7991 33.4075 15.2297 33.0204 15.0025Z" fill="#4111FF"/>
<defs>
<clipPath id="clip0_2290_5025">
<rect width="91.1288" height="26.4046" fill="white" transform="translate(54.1758 8.5188)"/>
</clipPath>
</defs>
</svg>