<svg version="1.1" xmlns="http://www.w3.org/2000/svg" style="display: block;" viewBox="600 860 1350 350" width="1024" height="265" preserveAspectRatio="xMidYMid meet">
<path transform="translate(0,0)" fill="rgb(65,66,75)" d="M 1294.11 955.39 C 1317.67 951.143 1351.63 962.032 1368.59 978.952 C 1392.76 1003.06 1395.95 1028.89 1396.12 1061 L 1251.77 1061.04 C 1261.73 1104.31 1308.69 1113.75 1344.57 1096.99 C 1349.57 1094.66 1353.69 1087.92 1359.48 1085.49 C 1367.63 1090.44 1378.33 1103.3 1385.12 1110.73 C 1365.47 1129.76 1354.63 1135.47 1326.85 1139.68 C 1234.33 1153.73 1173.06 1062.59 1230.58 985.729 C 1244.56 967.047 1270.82 957.781 1294.11 955.39 z M 1250.41 1034.02 C 1259.41 1032.27 1287.87 1032.78 1299.75 1032.19 L 1355.39 1032.16 C 1346.27 1004.26 1334.58 991.3 1303.87 989.528 C 1271.58 991.294 1259.26 1003.91 1250.41 1034.02 z"/>
<path transform="translate(0,0)" fill="rgb(65,66,75)" d="M 877.957 955.591 C 911.918 951.485 960.66 961.921 969.455 999.729 C 979.533 1043.05 971.818 1093.68 975.023 1138.17 C 961.198 1137.98 946.842 1138.54 932.979 1138.91 C 933.812 1130.78 933.816 1127.29 933.451 1119.09 C 902.846 1150.66 844.095 1148.33 816.582 1114.5 C 809.527 1103.2 807.277 1090.18 808.722 1077.11 C 814.409 1025.68 894.861 1026.81 931.653 1031.39 C 930.327 1019.73 928.654 1008.63 919.149 1000.58 C 894.309 979.521 854.737 992.179 830.887 1007.33 C 825.336 998.581 818.65 986.654 813.746 977.571 C 835.183 963.346 852.159 958.968 877.957 955.591 z M 904.442 1106.64 C 928.205 1095.67 932.141 1084.97 932.045 1059.5 C 913.956 1059.19 895.863 1059.15 877.773 1059.37 C 868.277 1061.14 858.324 1064.36 852.744 1072.74 C 845.128 1084.18 853.319 1098.68 864.186 1104.34 C 876.996 1111.02 891.018 1109.69 904.442 1106.64 z"/>
<path transform="translate(0,0)" fill="rgb(65,66,75)" d="M 998.269 956.965 C 1012.95 957.357 1028.9 958.139 1043.43 957.072 C 1047.91 970.026 1055.34 985.468 1060.7 998.394 C 1073.57 1029.4 1087.93 1060.02 1100.89 1090.96 C 1117.43 1048.03 1138.5 998.994 1157.21 957.056 C 1169.88 958.304 1187.26 957.561 1200.17 957.265 C 1178.49 999.701 1155.25 1058.74 1136 1103.16 C 1125.56 1127.96 1116.47 1152.58 1102.26 1175.65 C 1078.63 1214.01 1030.78 1213.86 996.264 1190.78 C 999.429 1183.35 1008.16 1162.75 1014.78 1159.93 C 1019.11 1160.67 1023.74 1164.24 1027.74 1166.28 C 1055.83 1180.63 1068.23 1160.1 1079.1 1138.21 C 1069.29 1118.72 1058.48 1091.93 1049.4 1071.49 L 998.269 956.965 z"/>
<path transform="translate(0,0)" fill="rgb(65,66,75)" d="M 618.168 899.106 C 629.367 900.321 649.661 899.851 661.961 900.139 C 661.142 940.883 660.969 981.639 661.442 1022.39 C 661.596 1047.63 661.158 1076.6 662.453 1101.6 C 672.636 1100.35 683.793 1100.99 694.019 1100.66 C 724.033 1099.68 757.383 1102.99 786.838 1101.06 C 786.529 1113.42 786.535 1125.78 786.857 1138.13 L 618.265 1138.52 L 618.168 899.106 z"/>
<path transform="translate(0,0)" fill="rgb(65,66,75)" d="M 1537.45 955.414 C 1539.8 955.168 1540.67 955.237 1543.06 955.26 C 1544.88 958.736 1543.42 988.535 1543.25 994.278 C 1523.99 994.163 1508.22 995.765 1493.67 1010.26 C 1487.84 1015.98 1483.62 1023.14 1481.44 1031.01 C 1476.29 1049.42 1478.88 1115.28 1479.17 1137.98 C 1464.28 1137.86 1451.24 1138.58 1436.09 1137.83 L 1436.19 1122.5 C 1437.13 1068.95 1436.5 1011.24 1436.09 957.548 C 1447.16 956.718 1464.39 957.626 1477.17 957.089 L 1477.14 982.328 C 1497.45 960.672 1508.02 956.976 1537.45 955.414 z"/>
<path transform="translate(0,0)" fill="rgb(65,66,75)" d="M 1578.99 957.545 C 1593.45 957.833 1608.13 958.314 1622.57 957.779 C 1620.58 999.488 1622.8 1044.44 1621.95 1086.38 C 1621.64 1101.84 1623.03 1123.53 1621.53 1138.54 C 1607.37 1138.24 1593.2 1138.22 1579.04 1138.48 C 1582.41 1083.49 1579.65 1013.01 1578.99 957.545 z"/>
<path transform="translate(0,0)" fill="rgb(28,159,183)" d="M 1596.44 872.283 C 1610.66 869.685 1624.81 876.98 1629.42 890.988 C 1631.88 898.287 1631.26 906.275 1627.69 913.103 C 1623.04 921.801 1617.61 924.331 1608.96 926.962 C 1598.99 927.5 1591.26 928.131 1582.35 922.053 C 1570.1 913.692 1567.59 894.614 1576.34 882.89 C 1581.49 875.989 1588.1 873.534 1596.44 872.283 z"/>
<path transform="translate(0,0)" fill="rgb(28,159,183)" d="M 1693.78 1103.06 C 1720.07 1102.15 1750.68 1102.89 1777.26 1103.05 C 1774.55 1107.08 1771.93 1110.13 1768.84 1113.85 C 1742.23 1116.09 1710.52 1113.08 1686.51 1115.74 C 1688.86 1111.47 1691.29 1107.25 1693.78 1103.06 z"/>
<path transform="translate(0,0)" fill="rgb(65,66,75)" d="M 1828.67 1122.7 C 1855.27 1123.54 1884.98 1122.77 1912.04 1123.05 C 1914.7 1126.22 1916.98 1128.43 1918.43 1132.3 L 1917.59 1133.81 L 1914.25 1133.95 C 1892.78 1134.83 1856.27 1135.5 1835.62 1133.78 C 1832.49 1129.8 1831.11 1127.08 1828.67 1122.7 z"/>
<path transform="translate(0,0)" fill="rgb(65,66,75)" d="M 1823.32 1103.55 C 1844.09 1102.09 1875.79 1103.22 1897.22 1103.54 C 1899.47 1106.78 1902.01 1109.01 1903.3 1112.7 L 1902.5 1114.32 L 1898.75 1114.5 C 1878.91 1116.08 1846.46 1115.03 1825.74 1114.34 C 1822.46 1114.23 1819.68 1111.34 1817.77 1108.79 C 1817.16 1105.22 1816.77 1106.72 1818.44 1104.02 L 1823.32 1103.55 z"/>
<path transform="translate(0,0)" fill="rgb(65,66,75)" d="M 1779.11 945.728 C 1784.55 946.852 1786.31 952.357 1788.69 956.944 C 1763.95 957.586 1734.56 957.507 1709.73 957.467 L 1706.49 956.937 C 1702.66 954.425 1700.08 949.964 1697.35 946.103 C 1723.74 945.459 1753.15 947.212 1779.11 945.728 z"/>
<path transform="translate(0,0)" fill="rgb(28,159,183)" d="M 1822.46 925.71 C 1836.67 926.659 1893.67 927.567 1906.85 926.064 L 1900.76 936.795 C 1872.34 937.82 1843.36 936.434 1815.57 937.665 C 1817.61 933.524 1820.07 929.662 1822.46 925.71 z"/>
<path transform="translate(0,0)" fill="rgb(28,159,183)" d="M 1811.01 946.033 C 1835.21 945.342 1868.14 945.315 1892.22 946.314 C 1889.39 951.469 1888.6 954.331 1883.56 956.58 C 1865.15 957.658 1845.44 956.634 1826.92 956.947 C 1818.93 957.083 1808.54 956.394 1800.85 957.827 C 1804.61 952.987 1806.67 950.438 1811.01 946.033 z"/>
<path transform="translate(0,0)" fill="rgb(28,159,183)" d="M 1768.76 1005.04 C 1792.36 1004.15 1827.46 1003.93 1850.9 1005.21 C 1849.33 1008.71 1848.08 1012.6 1845.11 1014.79 C 1835.74 1016.89 1778.84 1015.95 1765.46 1016 L 1768.76 1005.04 z"/>
<path transform="translate(0,0)" fill="rgb(28,159,183)" d="M 1706.59 1083.99 C 1734.62 1084.07 1762.65 1083.97 1790.68 1083.7 C 1788.36 1087.47 1785.84 1090.98 1783.32 1094.61 C 1755.66 1094.87 1728.01 1094.87 1700.35 1094.62 L 1706.59 1083.99 z"/>
<path transform="translate(0,0)" fill="rgb(28,159,183)" d="M 1795.36 966.115 C 1822.7 965.486 1850.05 965.428 1877.39 965.938 L 1870.86 976.462 C 1847.78 978.006 1813.86 977.032 1789.93 977.063 C 1791.94 973.356 1793.89 970.082 1795.36 966.115 z"/>
<path transform="translate(0,0)" fill="rgb(65,66,75)" d="M 1798.05 1083.75 C 1826.3 1084.45 1855.48 1083.69 1883.99 1084.13 C 1886.6 1087.83 1888.59 1090.43 1890.64 1094.51 C 1867.19 1093.25 1832.74 1094.83 1808.11 1095 C 1804.49 1091.27 1801.41 1087.67 1798.05 1083.75 z"/>
<path transform="translate(0,0)" fill="rgb(28,159,183)" d="M 1713.8 1123.51 C 1730.28 1123.19 1746.75 1123.1 1763.23 1123.23 L 1756.12 1133.68 C 1744 1134.15 1731.88 1134.37 1719.75 1134.35 C 1707.44 1133.97 1685.22 1135.62 1674.74 1133.34 L 1673.99 1132.02 C 1678.22 1119.95 1702.22 1123.64 1713.8 1123.51 z"/>
<path transform="translate(0,0)" fill="rgb(28,159,183)" d="M 1719.95 1065.07 C 1742.05 1062.42 1776.15 1064.77 1799.69 1063.89 C 1798.75 1067.46 1797.64 1071.35 1796.98 1074.96 L 1713.21 1075.04 L 1719.95 1065.07 z"/>
<path transform="translate(0,0)" fill="rgb(28,159,183)" d="M 1836.48 906.489 C 1860.96 908.026 1893.89 906.322 1919.69 906.924 C 1917.26 911.672 1916.71 913.239 1912.79 916.759 C 1887.27 917.899 1855.08 917.128 1829.01 917.174 C 1830.99 913.39 1833.02 908.675 1836.48 906.489 z"/>
<path transform="translate(0,0)" fill="rgb(65,66,75)" d="M 1684.76 926.925 L 1769.09 927.165 C 1771.35 930.253 1774.8 934.01 1775.3 937.38 C 1747.67 937.624 1720.04 937.645 1692.41 937.443 C 1689.84 934.187 1687.2 930.329 1684.76 926.925 z"/>
<path transform="translate(0,0)" fill="rgb(28,159,183)" d="M 1849.31 888.056 C 1876.11 887.182 1905.77 887.455 1932.58 887.971 C 1929.86 892.015 1928.32 895.076 1924.27 897.722 C 1897.55 899.027 1867.9 897.733 1840.29 898.624 C 1843.32 894.539 1845.91 891.779 1849.31 888.056 z"/>
<path transform="translate(0,0)" fill="rgb(65,66,75)" d="M 1670.13 906.77 C 1692.25 907.633 1735.91 905.201 1755.17 907.941 C 1757.63 911.22 1758.85 912.996 1760.86 916.557 L 1759.87 917.888 C 1732.12 917.444 1706.02 916.483 1678.16 917.725 C 1675.43 914.116 1672.75 910.464 1670.13 906.77 z"/>
<path transform="translate(0,0)" fill="rgb(65,66,75)" d="M 1712.36 965.869 C 1740.54 966.198 1766.69 964.895 1795.36 966.115 C 1793.89 970.082 1791.94 973.356 1789.93 977.063 C 1767.14 976.717 1744.45 977.308 1721.45 976.79 C 1718.14 973.493 1715.26 969.567 1712.36 965.869 z"/>
<path transform="translate(0,0)" fill="rgb(28,159,183)" d="M 1736.12 1044.15 C 1761.03 1044 1785.94 1043.99 1810.85 1044.12 C 1809.07 1047.96 1809.43 1051.12 1809.36 1055.38 C 1803.64 1054.34 1787.29 1054.82 1780.61 1054.86 L 1726.66 1055.16 C 1729.86 1050.65 1732.35 1048.14 1736.12 1044.15 z"/>
<path transform="translate(0,0)" fill="rgb(28,159,183)" d="M 1666.59 1143.18 C 1694.08 1142.2 1722.8 1142.79 1750.37 1143.02 C 1747.59 1146.85 1745.69 1149.46 1742.45 1152.97 C 1716.42 1152.04 1683.95 1152.56 1657.66 1153 C 1660.88 1148.88 1662.93 1146.83 1666.59 1143.18 z"/>
<path transform="translate(0,0)" fill="rgb(65,66,75)" d="M 1799.69 1063.89 C 1823.27 1063.77 1846.85 1063.96 1870.43 1064.45 L 1878.63 1075.12 C 1851.51 1074.98 1824.08 1074.73 1796.98 1074.96 C 1797.64 1071.35 1798.75 1067.46 1799.69 1063.89 z"/>
<path transform="translate(0,0)" fill="rgb(65,66,75)" d="M 1660.13 888.586 C 1676.36 888.19 1692.59 887.923 1708.82 887.783 C 1718.2 887.667 1728.17 887.288 1737.53 888.011 C 1743.02 888.435 1745.65 893.537 1748.97 898.077 L 1666.01 897.922 C 1663.55 895.187 1660.39 892.159 1660.13 888.586 z"/>
<path transform="translate(0,0)" fill="rgb(65,66,75)" d="M 1841.95 1143.24 C 1869.44 1142.18 1898.27 1143.81 1925.94 1142.62 C 1927.85 1145.46 1930.29 1148.37 1930.65 1151.64 L 1928.75 1152.42 C 1922.34 1153.02 1909.16 1152.48 1902.17 1152.46 C 1883.64 1152.31 1865.11 1152.46 1846.59 1152.9 C 1845.16 1149.43 1843.66 1146.58 1841.95 1143.24 z"/>
<path transform="translate(0,0)" fill="rgb(32,118,137)" d="M 1746.12 1025.47 C 1770.31 1023.74 1790.69 1024.43 1814.79 1024.13 C 1811.35 1028.14 1813.42 1032.51 1812.03 1035.77 L 1740.48 1036.18 L 1746.12 1025.47 z"/>
<path transform="translate(0,0)" fill="rgb(28,159,183)" d="M 1784.51 987.606 C 1787.48 986.062 1856.8 985.538 1864.87 985.872 C 1862.91 989.138 1860.86 992.723 1858.69 995.832 C 1830.93 996.049 1803.16 995.832 1775.41 995.182 C 1778.82 991.48 1780.64 992.925 1784.51 987.606 z"/>
<path transform="translate(0,0)" fill="rgb(65,66,75)" d="M 1810.85 1044.12 C 1825.73 1044.15 1842.45 1043.81 1857.18 1044.42 C 1859.58 1048.3 1860.99 1050.6 1863.82 1054.14 L 1864.04 1056.11 C 1852.71 1056.51 1819.84 1056.46 1809.36 1055.38 C 1809.43 1051.12 1809.07 1047.96 1810.85 1044.12 z"/>
<path transform="translate(0,0)" fill="rgb(65,66,75)" d="M 1726.22 985.937 C 1736.39 986.036 1778.35 984.222 1784.51 987.606 C 1780.64 992.925 1778.82 991.48 1775.41 995.182 C 1770.33 997.277 1741.32 996.621 1733.49 996.6 L 1726.22 985.937 z"/>
<path transform="translate(0,0)" fill="rgb(65,66,75)" d="M 1814.79 1024.13 L 1843.96 1024.85 L 1850.56 1036.07 L 1812.03 1035.77 C 1813.42 1032.51 1811.35 1028.14 1814.79 1024.13 z"/>
<path transform="translate(0,0)" fill="rgb(65,66,75)" d="M 1741 1005.22 L 1768.76 1005.04 L 1765.46 1016 C 1758.39 1015.9 1752.78 1016.18 1745.7 1016.64 C 1744.08 1013.09 1742.49 1008.88 1741 1005.22 z"/>
<path transform="translate(0,0)" fill="rgb(8,3,8)" fill-opacity="0.0117647" d="M 1840.06 1019.67 C 1842.64 1020.13 1841.5 1019.63 1843.51 1021.08 C 1839.67 1021.77 1835.83 1022.39 1831.97 1022.91 C 1830.06 1022.38 1829.58 1022.2 1827.78 1021.49 C 1828.65 1020.47 1837.13 1020.31 1840.06 1019.67 z"/>
</svg>