<svg xmlns="http://www.w3.org/2000/svg" width="1200" height="630" viewBox="0 0 1200 630">
  <defs>
    <linearGradient id="gHalloween" x1="0%" y1="0%" x2="100%" y2="100%">
      <stop offset="0%" style="stop-color:#F97316"/>
      <stop offset="100%" style="stop-color:#1F2937"/>
    </linearGradient>
  </defs>
  <rect width="1200" height="630" fill="url(#gHalloween)"/>
  <circle cx="150" cy="150" r="120" fill="rgba(255,255,255,0.12)"/>
  <circle cx="1050" cy="480" r="140" fill="rgba(255,255,255,0.10)"/>
  <g transform="translate(600,225)">
    <rect x="-8" y="-88" width="16" height="26" rx="4" fill="#4D7C0F"/>
    <ellipse cx="0" cy="-20" rx="92" ry="72" fill="#FB923C"/>
    <ellipse cx="-46" cy="-20" rx="30" ry="72" fill="#F97316"/>
    <ellipse cx="46" cy="-20" rx="30" ry="72" fill="#F97316"/>
    <polygon points="-46,-42 -20,-42 -33,-18" fill="#1F2937"/>
    <polygon points="46,-42 20,-42 33,-18" fill="#1F2937"/>
    <path d="M-42,10 L-26,-3 L-13,10 L0,-3 L13,10 L26,-3 L42,10 L26,24 L-26,24 Z" fill="#1F2937"/>
  </g>
  <text x="600" y="455" font-family="Arial, sans-serif" font-size="52" font-weight="bold" fill="#ffffff" text-anchor="middle">Halloween 2026</text>
  <text x="600" y="512" font-family="Arial, sans-serif" font-size="32" fill="rgba(255,255,255,0.92)" text-anchor="middle">Custom Decor, Props &amp; Cosplay</text>
  <text x="600" y="582" font-family="Arial, sans-serif" font-size="24" fill="#ffffff" text-anchor="middle">Tathastu Keepsakes</text>
</svg>
