<svg xmlns="http://www.w3.org/2000/svg" width="1200" height="630" viewBox="0 0 1200 630">
  <defs>
    <linearGradient id="gradR1" x1="0%" y1="0%" x2="100%" y2="100%">
      <stop offset="0%" style="stop-color:#ffb74d;stop-opacity:1" />
      <stop offset="100%" style="stop-color:#e64a19;stop-opacity:1" />
    </linearGradient>
  </defs>
  <rect width="1200" height="630" fill="url(#gradR1)"/>
  <circle cx="150" cy="120" r="100" fill="rgba(255,255,255,0.15)"/>
  <circle cx="1050" cy="510" r="130" fill="rgba(255,255,255,0.15)"/>
  <g>
    <circle cx="695" cy="230" r="34" fill="#fde68a"/><circle cx="682" cy="278" r="34" fill="#fde68a"/><circle cx="648" cy="312" r="34" fill="#fde68a"/><circle cx="600" cy="325" r="34" fill="#fde68a"/><circle cx="552" cy="312" r="34" fill="#fde68a"/><circle cx="518" cy="278" r="34" fill="#fde68a"/><circle cx="505" cy="230" r="34" fill="#fde68a"/><circle cx="518" cy="183" r="34" fill="#fde68a"/><circle cx="552" cy="148" r="34" fill="#fde68a"/><circle cx="600" cy="135" r="34" fill="#fde68a"/><circle cx="648" cy="148" r="34" fill="#fde68a"/><circle cx="682" cy="182" r="34" fill="#fde68a"/>
    <line x1="565" y1="320" x2="545" y2="410" stroke="#ffffff" stroke-width="8"/>
    <line x1="635" y1="320" x2="655" y2="410" stroke="#ffffff" stroke-width="8"/>
    <circle cx="545" cy="420" r="14" fill="#fde68a"/>
    <circle cx="655" cy="420" r="14" fill="#fde68a"/>
    <circle cx="600" cy="230" r="80" fill="#ffffff" stroke="#7f1d1d" stroke-width="4"/>
    <circle cx="600" cy="230" r="54" fill="#b91c1c"/>
    <circle cx="600" cy="230" r="22" fill="#ffffff"/>
  </g>
  <text x="600" y="470" font-family="Arial, sans-serif" font-size="46" font-weight="bold" fill="#7f1d1d" text-anchor="middle">Unique Rakhi Gift Ideas 2026</text>
  <text x="600" y="525" font-family="Arial, sans-serif" font-size="32" fill="#9a3412" text-anchor="middle">Personalised &amp; Custom Rakhi for Brothers</text>
  <text x="600" y="585" font-family="Arial, sans-serif" font-size="24" fill="#7f1d1d" text-anchor="middle">Tathastu Keepsakes</text>
</svg>